name rise49.8558peak67.6521fall70.3087.mot
datacolumns 19
datarows 12
range 18.85159600000000 18.86993300000000
endheader
time	ground_force1_vx	ground_force1_vy	ground_force1_vz	ground_force1_px	ground_force1_py	ground_force1_pz	ground_force2_vx	ground_force2_vy	ground_force2_vz	ground_force2_px	ground_force2_py	ground_force2_pz	ground_torque1_x	ground_torque1_y	ground_torque1_z	ground_torque2_x	ground_torque2_y	ground_torque2_z	
18.85159600000000	68.58678900000000	761.19096500000001	50.66659400000000	0.37911300000000	0.00000000000000	0.08727700000000	0.00000000000000	0.00000000000000	0.00000000000000	0.00000000000000	0.00000000000000	0.00000000000000	0.00000000000000	26.78790200000000	0.00000000000000	0.00000000000000	0.00000000000000	0.00000000000000	
18.85326400000000	68.05404200000000	763.79308200000003	50.74671100000000	0.37799000000000	0.00000000000000	0.08728800000000	0.00000000000000	0.00000000000000	0.00000000000000	0.00000000000000	0.00000000000000	0.00000000000000	0.00000000000000	26.81738200000000	0.00000000000000	0.00000000000000	0.00000000000000	0.00000000000000	
18.85493300000000	67.51869499999999	766.28140199999996	50.82114700000000	0.37690300000000	0.00000000000000	0.08729700000000	0.00000000000000	0.00000000000000	0.00000000000000	0.00000000000000	0.00000000000000	0.00000000000000	0.00000000000000	26.84500400000000	0.00000000000000	0.00000000000000	0.00000000000000	0.00000000000000	
18.85659900000000	66.98046300000000	768.65241200000003	50.88975400000000	0.37585300000000	0.00000000000000	0.08730400000000	0.00000000000000	0.00000000000000	0.00000000000000	0.00000000000000	0.00000000000000	0.00000000000000	0.00000000000000	26.87073200000000	0.00000000000000	0.00000000000000	0.00000000000000	0.00000000000000	
18.85826100000000	66.43901800000000	770.90273800000000	50.95234700000000	0.37483800000000	0.00000000000000	0.08730900000000	0.00000000000000	0.00000000000000	0.00000000000000	0.00000000000000	0.00000000000000	0.00000000000000	0.00000000000000	26.89449800000000	0.00000000000000	0.00000000000000	0.00000000000000	0.00000000000000	
18.85992700000000	65.89399600000000	773.02916300000004	51.00870600000000	0.37385800000000	0.00000000000000	0.08731200000000	0.00000000000000	0.00000000000000	0.00000000000000	0.00000000000000	0.00000000000000	0.00000000000000	0.00000000000000	26.91620000000000	0.00000000000000	0.00000000000000	0.00000000000000	0.00000000000000	
18.86159900000000	65.34500300000001	775.02864699999998	51.05857900000000	0.37291000000000	0.00000000000000	0.08731300000000	0.00000000000000	0.00000000000000	0.00000000000000	0.00000000000000	0.00000000000000	0.00000000000000	0.00000000000000	26.93570700000000	0.00000000000000	0.00000000000000	0.00000000000000	0.00000000000000	
18.86326100000000	64.79161900000000	776.89834499999995	51.10168200000000	0.37199300000000	0.00000000000000	0.08731200000000	0.00000000000000	0.00000000000000	0.00000000000000	0.00000000000000	0.00000000000000	0.00000000000000	0.00000000000000	26.95286200000000	0.00000000000000	0.00000000000000	0.00000000000000	0.00000000000000	
18.86492700000000	64.23340399999999	778.63562500000000	51.13771100000000	0.37110600000000	0.00000000000000	0.08730900000000	0.00000000000000	0.00000000000000	0.00000000000000	0.00000000000000	0.00000000000000	0.00000000000000	0.00000000000000	26.96748300000000	0.00000000000000	0.00000000000000	0.00000000000000	0.00000000000000	
18.86659600000000	63.66990400000000	780.23808199999996	51.16633500000000	0.37024800000000	0.00000000000000	0.08730400000000	0.00000000000000	0.00000000000000	0.00000000000000	0.00000000000000	0.00000000000000	0.00000000000000	0.00000000000000	26.97936200000000	0.00000000000000	0.00000000000000	0.00000000000000	0.00000000000000	
18.86825900000000	63.10065600000000	781.70355199999995	51.18721100000000	0.36941500000000	0.00000000000000	0.08729800000000	0.00000000000000	0.00000000000000	0.00000000000000	0.00000000000000	0.00000000000000	0.00000000000000	0.00000000000000	26.98827600000000	0.00000000000000	0.00000000000000	0.00000000000000	0.00000000000000	
18.86993300000000	62.52519500000000	783.03012999999999	51.19997800000000	0.36860600000000	0.00000000000000	0.08729000000000	0.00000000000000	0.00000000000000	0.00000000000000	0.00000000000000	0.00000000000000	0.00000000000000	0.00000000000000	26.99398000000000	0.00000000000000	0.00000000000000	0.00000000000000	0.00000000000000	
